<?xml version="1.0" encoding="utf-8"?>
<!-- Generator: Adobe Illustrator 27.7.0, SVG Export Plug-In . SVG Version: 6.00 Build 0)  -->
<svg version="1.1" id="Layer_1" xmlns="http://www.w3.org/2000/svg" xmlns:xlink="http://www.w3.org/1999/xlink" x="0px" y="0px"
	 viewBox="0 0 225.2 22.3" style="enable-background:new 0 0 225.2 22.3;" xml:space="preserve">
<style type="text/css">
	.st0{display:none;}
	.st1{display:inline;}
</style>
<g>
	<polygon points="24.4,1.1 22.7,1.1 15.3,21.2 17.5,21.2 23.6,4.2 29.6,21.2 31.8,21.2 	"/>
	<path d="M126.5,4.5c-1-1.1-2.4-1.5-4-1.5h-4.4v16.3h4.4c1.6,0,2.9-0.4,4-1.5c1.4-1.4,1.3-4.4,1.3-6.9
		C127.8,8.5,127.8,5.9,126.5,4.5 M127.9,19.4c-1.2,1.2-3,1.9-5.1,1.9H116V1.1h6.9c2.1,0,3.9,0.7,5.1,1.9c2.1,2.1,2,5.2,2,8
		C129.9,13.7,130,17.3,127.9,19.4"/>
	<rect x="132.4" y="1.1" width="2.1" height="20.1"/>
	<path d="M39.5,10.4h0.5c2.3,0,4-1.2,4-3.7c0-2.5-1.7-3.7-4-3.7h-5.4v18.2h-2.2V1.1h7.7c3.5,0,6,2.1,6,5.6c0,2.9-1.8,4.9-4.4,5.4
		l4.8,9.1h-2.5l-4.6-8.9V10.4z"/>
	<polygon points="94.7,3 82.4,19.4 82.4,21.2 97.4,21.2 97.4,19.3 85.1,19.3 97.4,3 97.4,1.1 82.4,1.1 82.4,3 	"/>
	<polygon points="67.3,4.9 78.1,21.2 80.2,21.2 80.2,1.1 78,1.1 78,17.2 67.3,1.1 65.2,1.1 65.2,21.2 67.3,21.2 	"/>
	<polygon points="146.8,21.2 146.8,1.1 149,1.1 149,19.3 158.5,19.3 158.5,21.2 	"/>
	<rect x="10.3" y="1.1" width="2.9" height="20.1"/>
	<rect x="5.7" y="1.1" width="2.9" height="20.1"/>
	<rect x="1" y="1.1" width="2.9" height="20.1"/>
	<polygon points="224.1,1.1 221.7,1.1 216.7,10.1 211.7,1.1 209.3,1.1 215.6,12 215.6,21.2 217.8,21.2 217.8,12.1 	"/>
	<polygon points="196.3,21.2 196.3,1.1 208.8,1.1 208.8,3 198.5,3 198.5,10.1 204.6,10.1 204.6,12 198.5,12 198.5,19.3 208.8,19.3 
		208.8,21.2 	"/>
	<polygon points="183,21.2 183,1.1 185.2,1.1 185.2,19.3 194.7,19.3 194.7,21.2 	"/>
	<polygon points="61.3,21.2 63.5,21.2 56.1,1.1 54.4,1.1 47.1,21.2 49.2,21.2 51.4,15.1 56.8,15.1 56.2,13.1 52.1,13.1 55.3,4.2 	
		"/>
	<polygon points="112.1,21.2 114.3,21.2 106.9,1.1 105.2,1.1 97.8,21.2 100,21.2 102.2,15.1 107.6,15.1 107,13.1 102.9,13.1 
		106,4.2 	"/>
	<polygon points="173.2,21.2 175.4,21.2 168,1.1 166.3,1.1 158.9,21.2 161.1,21.2 163.3,15.1 168.7,15.1 168.1,13.1 164,13.1 
		167.1,4.2 	"/>
	<g class="st0">
		<g class="st1">
			<rect x="228.7" width="0.4" height="22.3"/>
			<rect x="233.9" y="1.1" width="1" height="9.3"/>
			<polygon points="263.6,10.5 262.6,10.5 257.7,3 257.7,10.5 256.6,10.5 256.6,1.1 257.6,1.1 262.5,8.5 262.5,1.1 263.6,1.1 			"/>
			<polygon points="278.1,1.1 275.7,8.5 273.4,1.1 272.3,1.1 275.4,10.5 276.1,10.5 279.2,1.1 			"/>
			<polygon points="241.3,10.5 244,2.7 246.7,10.5 247.8,10.5 244.4,1.1 243.6,1.1 240.1,10.5 			"/>
			<polygon points="239.9,1.1 238.7,1.1 235.2,5.8 239.2,10.5 239.6,10.5 239.8,9.7 236.5,5.7 			"/>
			<path d="M236.9,21.3c-0.9,0-1.8-0.3-2.4-1c-0.9-0.9-0.9-1.8-0.9-3.8s0-2.9,0.9-3.8c0.6-0.6,1.5-1,2.4-1c1.3,0,2,0.5,2.8,1.3
				l0.1,0.1l-0.7,0.7l-0.1-0.1c-0.7-0.7-1.2-1-2.1-1c-0.6,0-1.2,0.2-1.6,0.6c-0.6,0.6-0.6,1.2-0.6,3.1s0,2.5,0.6,3.1
				c0.4,0.4,1,0.6,1.6,0.6c0.7,0,1.3-0.3,1.7-0.8c0.4-0.4,0.5-0.9,0.5-1.7v-0.6h-2.4v-1h3.5v1.7c0,1-0.2,1.7-0.8,2.3
				C238.8,20.9,237.9,21.3,236.9,21.3"/>
			<path d="M260.9,21.3c-1.9,0-3.3-1.3-3.3-3.2v-6.3h1.1V18c0,1.4,0.9,2.3,2.2,2.3s2.2-0.9,2.2-2.3v-6.2h1.1v6.3
				C264.1,20,262.8,21.3,260.9,21.3"/>
			<path d="M252.7,12.8c-0.6,0-1.2,0.2-1.6,0.6c-0.6,0.6-0.6,1.2-0.6,3.1c0,1.9,0,2.5,0.6,3.1c0.4,0.4,1,0.6,1.6,0.6
				c0.6,0,1.2-0.2,1.6-0.6c0.6-0.6,0.6-1.2,0.6-3.1c0-1.9,0-2.5-0.6-3.1C253.8,13,253.3,12.8,252.7,12.8 M252.7,21.3
				c-0.9,0-1.8-0.3-2.4-1c-0.9-0.9-0.9-1.8-0.9-3.8s0-2.9,0.9-3.8c0.6-0.6,1.5-1,2.4-1c0.9,0,1.8,0.3,2.4,1c0.9,0.9,0.9,1.8,0.9,3.8
				s0,2.9-0.9,3.8C254.4,20.9,253.6,21.3,252.7,21.3"/>
			<path d="M246.2,17c1.2-0.3,2-1.3,2-2.6c0-1.6-1.1-2.6-2.8-2.6h-3.6v9.4h1.1v-8.4h2.5c1.1,0,1.8,0.6,1.8,1.6
				c0,1.4-1.1,1.6-1.8,1.6H245v1h0l2.1,4.1h1.3L246.2,17z"/>
			<path d="M253.2,6.3c1.2-0.3,2-1.3,2-2.6c0-1.6-1.1-2.6-2.8-2.6h-3.6v9.4h1.1V2.1h2.5c1.1,0,1.8,0.6,1.8,1.6
				c0,1.4-1.1,1.6-1.8,1.6H252v1h0l2.1,4.1h1.3L253.2,6.3z"/>
			<path d="M269.4,11.8h-3.5v9.4h1.1v-8.4h2.3c0.7,0,1.9,0.2,1.9,1.8c0,1.5-1.2,1.8-1.9,1.8h-1.2v1h1.3c1.7,0,2.9-1.1,2.9-2.8
				C272.3,12.9,271.2,11.8,269.4,11.8"/>
			<path d="M268.6,2c-0.6,0-1.2,0.2-1.6,0.6c-0.6,0.6-0.6,1.2-0.6,3.1c0,1.9,0,2.5,0.6,3.1c0.4,0.4,1,0.6,1.6,0.6
				c0.6,0,1.2-0.2,1.6-0.6c0.6-0.6,0.6-1.2,0.6-3.1c0-1.9,0-2.5-0.6-3.1C269.7,2.2,269.2,2,268.6,2 M268.6,10.6
				c-0.9,0-1.8-0.3-2.4-1c-0.9-0.9-0.9-1.8-0.9-3.8c0-2,0-2.9,0.9-3.8c0.6-0.6,1.5-1,2.4-1c0.9,0,1.8,0.3,2.4,1
				c0.9,0.9,0.9,1.8,0.9,3.8c0,2,0,2.9-0.9,3.8C270.3,10.2,269.5,10.6,268.6,10.6"/>
		</g>
	</g>
</g>
</svg>
