<?xml version="1.0" encoding="utf-8"?>
<!-- Generator: Adobe Illustrator 27.2.0, SVG Export Plug-In . SVG Version: 6.00 Build 0)  -->
<svg version="1.1" id="Layer_1" xmlns="http://www.w3.org/2000/svg" xmlns:xlink="http://www.w3.org/1999/xlink" x="0px" y="0px"
	 viewBox="0 0 36.7 30" style="enable-background:new 0 0 36.7 30;" xml:space="preserve">
<style type="text/css">
	.st0{fill:#FFFFFF;}
</style>
<rect x="0" y="0" class="st0" width="36.8" height="30"/>
<g>
	<g id="Jusnet">
		<path class="st1" d="M23,22.5c-0.7,0-1.3-0.1-1.9-0.3s-1.1-0.6-1.5-1l0.5-0.5l0.5-0.5c0.3,0.3,0.5,0.5,0.9,0.7s0.8,0.3,1.4,0.3
			c1,0,1.7-0.3,2.2-0.9s0.8-1.4,0.8-2.5v-5V7.6h0.8h0.8v5.2v5.2c0,1.4-0.5,2.6-1.3,3.4C25.5,22,24.4,22.5,23,22.5"/>
	</g>
	<polygon class="st1" points="16,7.5 17,7.5 18.1,7.5 18.1,15 18.1,22.4 17,22.4 16,22.4 16,15 	"/>
	<polygon class="st1" points="12.5,7.5 13.6,7.5 14.6,7.5 14.6,15 14.6,22.4 13.6,22.4 12.5,22.4 12.5,15 	"/>
	<polygon class="st1" points="9.1,7.5 10.1,7.5 11.2,7.5 11.2,15 11.2,22.4 10.1,22.4 9.1,22.4 9.1,15 	"/>
</g>
</svg>
