<?xml version="1.0" encoding="utf-8"?>
<!-- Generator: Adobe Illustrator 27.2.0, SVG Export Plug-In . SVG Version: 6.00 Build 0)  -->
<svg version="1.1" id="Capa_1" xmlns="http://www.w3.org/2000/svg" xmlns:xlink="http://www.w3.org/1999/xlink" x="0px" y="0px"
	 viewBox="0 0 26.9 21" style="enable-background:new 0 0 26.9 21;" xml:space="preserve">
<g id="Layer_1">
	<g>
		<g>
			<polygon points="9.9,0.6 11.3,0.6 12.7,0.6 12.7,10.5 12.7,20.4 11.3,20.4 9.9,20.4 9.9,10.5 			"/>
			<polygon points="5.3,0.6 6.7,0.6 8.1,0.6 8.1,10.5 8.1,20.4 6.7,20.4 5.3,20.4 5.3,10.5 			"/>
			<polygon points="0.7,0.6 2.1,0.6 3.5,0.6 3.5,10.5 3.5,20.4 2.1,20.4 0.7,20.4 0.7,10.5 			"/>
			<polygon points="14.5,20.4 14.5,10.5 14.5,0.6 15.9,0.6 17.3,0.6 17.3,9.5 17.3,18.5 21.6,18.5 26,18.5 26,19.4 26,20.4 
				20.2,20.4 			"/>
		</g>
	</g>
</g>
<g id="Capa_1_00000098937527425800588580000012385293786998857374_">
</g>
</svg>
