<?xml version="1.0" encoding="utf-8"?>
<!-- Generator: Adobe Illustrator 28.0.0, SVG Export Plug-In . SVG Version: 6.00 Build 0)  -->
<svg version="1.1" id="Layer_1" xmlns="http://www.w3.org/2000/svg" xmlns:xlink="http://www.w3.org/1999/xlink" x="0px" y="0px"
	 viewBox="0 0 91.29 33.05" style="enable-background:new 0 0 91.29 33.05;" xml:space="preserve">
<style type="text/css">
	.st0{fill:#131A1C;}
</style>
<g id="Karnov">
	<rect x="12.4" y="0.78" class="st0" width="2.38" height="16.98"/>
	<rect x="8.49" y="0.78" class="st0" width="2.38" height="16.98"/>
	<rect x="4.59" y="0.78" class="st0" width="2.38" height="16.98"/>
	<rect x="0.68" y="0.78" class="st0" width="2.38" height="16.98"/>
	<g>
		<path class="st0" d="M4.16,32.45c-1.09,0-2.11-0.42-2.87-1.19c-1.07-1.08-1.07-2.18-1.07-4.59c0-2.41,0-3.51,1.07-4.59
			c0.76-0.76,1.78-1.19,2.87-1.19c1.5,0,2.44,0.63,3.39,1.59l0.17,0.17l-0.89,0.9l-0.17-0.17c-0.86-0.87-1.43-1.26-2.5-1.26
			c-0.72,0-1.38,0.27-1.88,0.77c-0.7,0.71-0.76,1.51-0.76,3.79c0,2.28,0.06,3.08,0.76,3.79c0.47,0.49,1.16,0.77,1.88,0.77
			c0.81,0,1.56-0.35,2.06-0.97c0.42-0.52,0.6-1.1,0.6-2v-0.73h-2.9v-1.22h4.2v2.02c0,1.24-0.28,2.08-0.94,2.79
			C6.41,31.97,5.31,32.45,4.16,32.45"/>
		<path class="st0" d="M32.15,32.45c-2.32,0-3.94-1.59-3.94-3.87v-7.6h1.3v7.49c0,1.67,1.04,2.75,2.64,2.75
			c1.6,0,2.64-1.08,2.64-2.75v-7.49h1.3v7.6C36.09,30.87,34.47,32.45,32.15,32.45"/>
		<path class="st0" d="M22.42,22.12c-0.72,0-1.38,0.27-1.88,0.77c-0.7,0.71-0.76,1.51-0.76,3.79c0,2.28,0.06,3.08,0.76,3.78
			c0.49,0.5,1.16,0.77,1.88,0.77c0.72,0,1.38-0.27,1.88-0.77c0.7-0.71,0.76-1.51,0.76-3.78c0-2.28-0.06-3.08-0.76-3.79
			C23.81,22.4,23.14,22.12,22.42,22.12 M22.42,32.45c-1.09,0-2.11-0.42-2.87-1.19c-1.07-1.08-1.07-2.18-1.07-4.59
			c0-2.41,0-3.51,1.07-4.59c0.76-0.76,1.78-1.19,2.87-1.19c1.09,0,2.11,0.42,2.87,1.19c1.07,1.08,1.07,2.18,1.07,4.59
			c0,2.41,0,3.51-1.07,4.59C24.53,32.03,23.52,32.45,22.42,32.45"/>
		<path class="st0" d="M14.67,27.26c1.49-0.38,2.37-1.52,2.37-3.11c0-1.92-1.31-3.16-3.34-3.16H9.35v11.37h1.3V22.21h2.94
			c1.36,0,2.14,0.71,2.14,1.96c0,1.7-1.34,1.96-2.14,1.96h-0.37v1.22h0.01l2.58,5.01h1.5L14.67,27.26z"/>
		<path class="st0" d="M42.11,20.99h-4.2v11.37h1.3V22.21h2.8c0.86,0,2.29,0.28,2.29,2.16c0,1.87-1.43,2.15-2.29,2.15h-1.44v1.22
			h1.53c2.1,0,3.5-1.36,3.5-3.38C45.61,22.35,44.2,20.99,42.11,20.99"/>
	</g>
	<polygon class="st0" points="64.45,17.92 62.82,17.92 53.64,3.97 53.64,17.92 51.9,17.92 51.9,0.74 53.53,0.74 62.71,14.64 
		62.71,0.74 64.45,0.74 	"/>
	<path class="st0" d="M72.17,2.21C71,2.21,70,2.62,69.2,3.43c-1.11,1.12-1.21,2.43-1.21,5.9c0,3.47,0.1,4.78,1.21,5.9
		c0.8,0.81,1.8,1.22,2.97,1.22c1.17,0,2.17-0.41,2.97-1.22c1.11-1.12,1.21-2.43,1.21-5.9c0-3.47-0.1-4.78-1.21-5.9
		C74.33,2.62,73.34,2.21,72.17,2.21 M72.17,18.06c-1.64,0-3.13-0.59-4.19-1.67c-1.64-1.65-1.72-3.11-1.72-7.07
		c0-3.96,0.08-5.41,1.72-7.07c1.06-1.07,2.55-1.67,4.19-1.67c1.64,0,3.13,0.59,4.19,1.67c1.64,1.65,1.72,3.11,1.72,7.07
		c0,3.96-0.08,5.41-1.72,7.07C75.3,17.47,73.81,18.06,72.17,18.06"/>
	<polygon class="st0" points="85.47,17.92 84.05,17.92 83.99,17.75 78.45,0.74 80.28,0.74 84.76,14.66 89.23,0.74 91.07,0.74 	"/>
	<path class="st0" d="M46.4,10.14c2.32-0.52,3.69-2.25,3.69-4.68c0-2.87-1.96-4.72-4.99-4.72h-6.55v17.18h1.74V2.35h4.64
		c1.27,0,3.41,0.41,3.41,3.13c0,2.72-2.14,3.13-3.41,3.13h-0.47v1.61h0l3.95,7.69h2.01L46.4,10.14z"/>
	<polygon class="st0" points="31.91,0.74 30.45,0.74 24.18,17.92 26.05,17.92 31.18,3.4 36.31,17.92 38.18,17.92 	"/>
	<polygon class="st0" points="24.33,0.74 22.01,0.74 15.75,9.33 22.91,17.92 23.6,17.92 24.1,16.55 18.07,9.3 	"/>
</g>
</svg>
