<?xml version="1.0" encoding="utf-8"?>
<!-- Generator: Adobe Illustrator 27.2.0, SVG Export Plug-In . SVG Version: 6.00 Build 0)  -->
<svg version="1.1" id="Layer_1" xmlns="http://www.w3.org/2000/svg" xmlns:xlink="http://www.w3.org/1999/xlink" x="0px" y="0px"
	 viewBox="0 0 102.2 22.3" style="enable-background:new 0 0 102.2 22.3;" xml:space="preserve">
<g id="lll_Jusnet">
	<g id="Jusnet">
		<polygon points="95.7,3.1 95.7,12.2 95.7,21.3 94.7,21.3 93.6,21.3 93.6,12.2 93.6,3.1 91.3,3.1 89.1,3.1 88.6,2.1 88.1,1.1 
			94.7,1.1 101.2,1.1 101.2,2.1 101.2,3.1 98.5,3.1 		"/>
		<polygon points="74.4,21.3 74.4,11.2 74.4,1.1 80.7,1.1 86.9,1.1 86.9,2.1 86.9,3 81.8,3 76.6,3 76.6,6.6 76.6,10.1 79.6,10.1 
			82.7,10.1 82.7,11.1 82.7,12.1 79.6,12.1 76.6,12.1 76.6,15.7 76.6,19.3 81.8,19.3 86.9,19.3 86.9,20.3 86.9,21.3 80.7,21.3 		"/>
		<polygon points="69.7,1.2 69.7,9.2 69.7,17.2 64.6,9.2 59.4,1.2 58.4,1.2 57.4,1.2 57.4,11.2 57.4,21.3 58.4,21.3 59.5,21.3 
			59.5,13.1 59.5,4.9 64.6,13.1 69.8,21.3 70.8,21.3 71.8,21.3 71.8,11.2 71.8,1.2 70.8,1.2 		"/>
		<path d="M55.5,13.3c-0.2-0.4-0.5-0.8-0.9-1.1c-0.4-0.3-0.8-0.7-1.3-1c-0.3-0.2-0.7-0.4-1.3-0.6s-1.2-0.5-2-0.8
			c-0.8-0.3-1.5-0.7-2-1.1c-0.5-0.4-0.9-0.7-1.1-1c-0.2-0.3-0.4-0.6-0.5-0.9c-0.1-0.3-0.1-0.7,0-1.1c0.1-0.4,0.2-0.8,0.4-1.2
			c0.2-0.3,0.5-0.6,0.9-0.9c0.4-0.2,0.8-0.4,1.3-0.5c0.5-0.1,1.1-0.1,1.7,0c0.4,0,0.7,0.1,1,0.2s0.6,0.2,0.9,0.4L53.3,3l0.5-0.9
			c-0.4-0.2-0.8-0.4-1.2-0.5s-0.9-0.3-1.4-0.3c-0.9-0.1-1.7-0.1-2.4,0.1c-0.7,0.2-1.4,0.4-2,0.9s-1,0.9-1.4,1.5s-0.6,1.3-0.7,2.1
			c-0.1,0.4-0.1,0.8,0,1.2s0.1,0.8,0.3,1.1c0.1,0.4,0.3,0.7,0.5,1c0.2,0.3,0.5,0.6,0.8,0.9c0.3,0.3,0.7,0.5,1.2,0.8
			c0.5,0.3,1.2,0.6,1.9,0.9c0.9,0.4,1.6,0.7,2.1,1c0.6,0.3,1,0.5,1.2,0.7c0.3,0.2,0.5,0.4,0.7,0.6c0.2,0.2,0.3,0.4,0.4,0.7
			c0.1,0.2,0.2,0.5,0.2,0.8c0,0.3,0,0.6,0,0.9c-0.1,0.5-0.2,1-0.5,1.3c-0.2,0.4-0.6,0.7-1,1c-0.2,0.1-0.4,0.2-0.6,0.3
			c-0.2,0.1-0.4,0.2-0.7,0.2c-0.3,0.1-0.6,0.2-0.9,0.2c-0.3,0-0.7,0-1.1,0c-0.7-0.1-1.4-0.3-2-0.7c-0.6-0.3-1.2-0.7-1.7-1.2
			c-0.1-0.1-0.3-0.3-0.4-0.4c-0.1-0.2-0.3-0.3-0.4-0.5l-0.5,0.9l-0.5,0.9c0.1,0.1,0.2,0.2,0.2,0.3s0.2,0.2,0.2,0.3
			c0.5,0.6,1.2,1.1,2,1.5c0.8,0.4,1.7,0.7,2.7,0.8c0.6,0.1,1.3,0.1,1.8,0.1s1.1-0.1,1.6-0.3c0.5-0.2,0.9-0.4,1.3-0.7
			c0.4-0.3,0.8-0.7,1.1-1.1s0.6-0.9,0.8-1.3c0.2-0.5,0.3-1,0.4-1.5c0.1-0.6,0.1-1.1,0-1.6C55.8,14.2,55.7,13.8,55.5,13.3"/>
		<path d="M35.7,21.3c-2,0-3.8-0.7-5-1.9c-1.2-1.2-2-2.9-2-4.9V7.8V1.1h1.1h1.1v6.6v6.6c0,1.5,0.5,2.8,1.3,3.6
			c0.8,0.9,2.1,1.4,3.5,1.4s2.7-0.5,3.5-1.4c0.8-0.9,1.3-2.1,1.3-3.6V7.7V1.1h1.1h1.1v6.7v6.7c0,2-0.7,3.7-2,4.9
			C39.4,20.6,37.7,21.3,35.7,21.3"/>
		<path d="M19.8,21.3c-1,0-1.8-0.1-2.5-0.4s-1.4-0.7-2-1.4l0.7-0.7l0.7-0.7c0.4,0.4,0.7,0.7,1.2,0.9c0.5,0.2,1.1,0.4,1.9,0.4
			c1.3,0,2.3-0.4,3-1.2c0.7-0.8,1.1-1.9,1.1-3.4V7.9V1.1h1.1H26v7v7c0,1.9-0.6,3.5-1.7,4.6S21.6,21.3,19.8,21.3"/>
	</g>
	<g id="Isotipo">
		<polygon points="10.3,1 11.7,1 13.1,1 13.1,11.1 13.1,21.2 11.7,21.2 10.3,21.2 10.3,11.1 		"/>
		<polygon points="5.6,1 7,1 8.5,1 8.5,11.1 8.5,21.2 7,21.2 5.6,21.2 5.6,11.1 		"/>
		<polygon points="0.9,1 2.4,1 3.8,1 3.8,11.1 3.8,21.2 2.4,21.2 0.9,21.2 0.9,11.1 		"/>
	</g>
</g>
</svg>
