<?xml version="1.0" encoding="utf-8"?>
<!-- Generator: Adobe Illustrator 27.2.0, SVG Export Plug-In . SVG Version: 6.00 Build 0)  -->
<svg version="1.1" id="Layer_1" xmlns="http://www.w3.org/2000/svg" xmlns:xlink="http://www.w3.org/1999/xlink" x="0px" y="0px"
	 viewBox="0 0 91.3 20.2" style="enable-background:new 0 0 91.3 20.2;" xml:space="preserve">
<style type="text/css">
	.st0{fill:#010101;}
</style>
<g>
	<polygon class="st0" points="9.3,0 10.8,0 12.2,0 12.2,10.1 12.2,20.2 10.8,20.2 9.3,20.2 9.3,10.1 	"/>
	<polygon class="st0" points="4.7,0 6.1,0 7.5,0 7.5,10.1 7.5,20.2 6.1,20.2 4.7,20.2 4.7,10.1 	"/>
	<polygon class="st0" points="0,0 1.4,0 2.8,0 2.8,10.1 2.8,20.2 1.4,20.2 0,20.2 0,10.1 	"/>
	<polygon class="st0" points="14,20.2 14,10.1 14,0 15.4,0 16.9,0 16.9,9.1 16.9,18.2 21.3,18.2 25.7,18.2 25.7,19.2 25.7,20.2 
		19.9,20.2 	"/>
	<polygon class="st0" points="91.3,0 90.1,0 88.9,0 86.4,4.5 83.9,9.1 81.4,4.5 78.9,0 77.7,0 76.5,0 79.6,5.5 82.8,11 82.8,15.6 
		82.8,20.2 83.9,20.2 84.9,20.2 84.9,15.6 84.9,11 88.1,5.5 	"/>
	<polygon class="st0" points="63.5,20.2 63.5,10.1 63.5,0 69.8,0 76,0 76,1 76,1.9 70.9,1.9 65.7,1.9 65.7,5.5 65.7,9 68.8,9 
		71.8,9 71.8,10 71.8,11 68.8,11 65.7,11 65.7,14.6 65.7,18.2 70.9,18.2 76,18.2 76,19.2 76,20.2 69.8,20.2 	"/>
	<polygon class="st0" points="50.2,20.2 50.2,10.1 50.2,0 51.3,0 52.4,0 52.4,9.1 52.4,18.2 57.2,18.2 61.9,18.2 61.9,19.2 
		61.9,20.2 56.1,20.2 	"/>
</g>
<polygon class="st0" points="40.4,20.1 41.5,20.1 42.6,20.1 38.9,10.1 35.2,0 34.4,0 33.5,0 29.8,10.1 26.2,20.1 27.3,20.1 
	28.4,20.1 29.4,17.1 30.5,14 33.2,14 36,14 35.6,13 35.3,12.1 33.2,12.1 31.2,12.1 32.8,7.6 34.4,3.1 37.4,11.6 "/>
</svg>
