<?xml version="1.0" encoding="utf-8"?>
<!-- Generator: Adobe Illustrator 27.2.0, SVG Export Plug-In . SVG Version: 6.00 Build 0)  -->
<svg version="1.1" id="Layer_1" xmlns="http://www.w3.org/2000/svg" xmlns:xlink="http://www.w3.org/1999/xlink" x="0px" y="0px"
	 viewBox="0 0 140.71 52.24" style="enable-background:new 0 0 140.71 52.24;" xml:space="preserve">
<style type="text/css">
	.st0{display:none;fill:#FFFFFF;}
	.st1{display:none;}
	.st2{display:inline;}
</style>
<rect x="-15.81" y="-15.29" class="st0" width="171.71" height="83.82"/>
<g>
	<g id="Karnov_Goup" class="st1">
		<path class="st2" d="M126.95,39.39h-3.53v9.48h1.1v-8.46h2.36c0.72,0,1.92,0.23,1.92,1.8c0,1.56-1.21,1.8-1.92,1.8h-1.21v1.02
			h1.28c1.76,0,2.94-1.13,2.94-2.82C129.89,40.52,128.71,39.39,126.95,39.39"/>
		<path class="st2" d="M118.33,48.95c-1.95,0-3.31-1.33-3.31-3.22v-6.33h1.1v6.25c0,1.39,0.87,2.29,2.22,2.29
			c1.35,0,2.22-0.9,2.22-2.29v-6.25h1.1v6.33C121.64,47.62,120.28,48.95,118.33,48.95"/>
		<path class="st2" d="M110.08,40.33c-0.6,0-1.16,0.23-1.58,0.64c-0.59,0.59-0.64,1.26-0.64,3.16c0,1.9,0.05,2.57,0.64,3.16
			c0.41,0.41,0.97,0.64,1.58,0.64c0.6,0,1.16-0.23,1.58-0.64c0.59-0.59,0.64-1.25,0.64-3.16c0-1.9-0.05-2.57-0.64-3.16
			C111.24,40.56,110.68,40.33,110.08,40.33 M110.08,48.95c-0.92,0-1.77-0.35-2.41-0.99c-0.9-0.9-0.9-1.82-0.9-3.83s0-2.93,0.9-3.83
			c0.64-0.64,1.5-0.99,2.41-0.99c0.92,0,1.77,0.35,2.41,0.99c0.9,0.9,0.9,1.82,0.9,3.83s0,2.93-0.9,3.83
			C111.85,48.6,110.99,48.95,110.08,48.95"/>
		<path class="st2" d="M103.5,44.62c1.25-0.32,1.99-1.27,1.99-2.59c0-1.6-1.1-2.64-2.8-2.64h-3.66v9.48h1.1v-8.46h2.47
			c1.14,0,1.8,0.59,1.8,1.63c0,1.42-1.13,1.63-1.8,1.63h-0.31v1.02h0.01l2.17,4.18h1.26L103.5,44.62z"/>
		<path class="st2" d="M94.17,48.95c-0.92,0-1.77-0.35-2.41-0.99c-0.9-0.9-0.9-1.82-0.9-3.83s0-2.93,0.9-3.83
			c0.64-0.64,1.5-0.99,2.41-0.99c1.26,0,2.05,0.53,2.85,1.32l0.14,0.14l-0.75,0.75l-0.14-0.14c-0.73-0.73-1.2-1.05-2.1-1.05
			c-0.6,0-1.16,0.23-1.58,0.64c-0.59,0.59-0.64,1.26-0.64,3.16s0.05,2.57,0.64,3.16c0.4,0.41,0.97,0.64,1.58,0.64
			c0.68,0,1.31-0.29,1.73-0.8c0.36-0.44,0.5-0.92,0.5-1.67v-0.61h-2.43v-1.02h3.53v1.68c0,1.04-0.24,1.73-0.79,2.33
			C96.07,48.54,95.15,48.95,94.17,48.95"/>
		<polygon class="st2" points="135.71,28.55 133.35,36.09 130.98,28.55 129.83,28.55 132.95,38.04 133.74,38.04 136.86,28.55 		"/>
		<path class="st2" d="M126.12,29.5c-0.6,0-1.16,0.23-1.58,0.64c-0.59,0.59-0.64,1.26-0.64,3.16c0,1.9,0.05,2.57,0.64,3.16
			c0.41,0.41,0.97,0.64,1.58,0.64c0.6,0,1.16-0.23,1.58-0.64c0.59-0.59,0.64-1.25,0.64-3.16c0-1.9-0.05-2.57-0.64-3.16
			C127.28,29.73,126.72,29.5,126.12,29.5 M126.12,38.12c-0.92,0-1.77-0.35-2.41-0.99c-0.9-0.9-0.9-1.82-0.9-3.83
			c0-2.01,0-2.93,0.9-3.83c0.64-0.64,1.5-0.99,2.41-0.99c0.92,0,1.77,0.35,2.41,0.99c0.9,0.9,0.9,1.82,0.9,3.83
			c0,2.01,0,2.93-0.9,3.83C127.89,37.77,127.04,38.12,126.12,38.12"/>
		<polygon class="st2" points="121.06,38.04 120.12,38.04 115.11,30.53 115.11,38.04 114.07,38.04 114.07,28.55 115.01,28.55 
			120.02,36.07 120.02,28.55 121.06,28.55 		"/>
		<path class="st2" d="M110.59,33.79c1.25-0.32,1.99-1.27,1.99-2.59c0-1.6-1.1-2.64-2.8-2.64h-3.66v9.48h1.1v-8.46h2.47
			c1.14,0,1.8,0.59,1.8,1.63c0,1.42-1.13,1.63-1.8,1.63h-0.31v1.02h0.01l2.17,4.18h1.26L110.59,33.79z"/>
		<polygon class="st2" points="98.53,38.04 101.29,30.23 104.03,38.04 105.18,38.04 101.68,28.55 100.89,28.55 97.39,38.04 		"/>
		<polygon class="st2" points="97.17,28.55 95.93,28.55 92.44,33.29 96.43,38.04 96.82,38.04 97.09,37.21 93.74,33.2 		"/>
		<rect x="91.06" y="28.57" class="st2" width="1.06" height="9.38"/>
		<rect x="85.91" y="27.46" class="st2" width="0.45" height="22.53"/>
	</g>
	<g id="LA_LEY">
		<polygon points="81.21,28.56 78.82,28.56 73.73,37.67 68.67,28.56 66.27,28.56 72.65,39.62 72.65,48.89 74.82,48.89 74.82,39.64 
					"/>
		<polygon points="53.21,48.89 53.21,28.56 65.83,28.56 65.83,30.51 55.38,30.51 55.38,37.67 61.56,37.67 61.56,39.61 55.38,39.61 
			55.38,46.95 65.83,46.95 65.83,48.89 		"/>
		<polygon points="39.79,48.89 39.79,28.56 41.96,28.56 41.96,46.95 51.58,46.95 51.58,48.89 		"/>
		<polygon points="29.68,48.59 31.87,48.59 24.52,28.45 22.81,28.45 15.46,48.59 17.65,48.59 19.83,42.43 25.25,42.43 24.58,40.51 
			20.51,40.51 23.67,31.57 		"/>
		<polygon points="3.23,48.59 3.23,28.26 5.4,28.26 5.4,46.65 15.02,46.65 15.02,48.59 		"/>
	</g>
	<g id="ARANZADI">
		<rect x="134.63" y="3.24" width="2.15" height="20.14"/>
		<path d="M128.68,6.63c-1.05-1.07-2.4-1.47-3.96-1.47h-4.38v16.29h4.38c1.55,0,2.91-0.4,3.96-1.47c1.38-1.44,1.33-4.44,1.33-6.89
			C130.01,10.63,130.06,8.07,128.68,6.63 M130.18,21.51c-1.21,1.21-3,1.87-5.09,1.87h-6.9V3.24h6.9c2.09,0,3.87,0.65,5.09,1.87
			c2.09,2.09,1.98,5.18,1.98,7.98C132.15,15.88,132.27,19.42,130.18,21.51"/>
		<polygon points="114.29,23.38 116.48,23.38 109.13,3.24 107.42,3.24 100.07,23.38 102.26,23.38 104.44,17.22 109.86,17.22 
			109.18,15.29 105.12,15.29 108.27,6.36 		"/>
		<polygon points="96.97,5.15 84.63,21.57 84.63,23.38 99.63,23.38 99.63,21.45 87.37,21.45 99.63,5.16 99.63,3.24 84.63,3.24 
			84.63,5.16 		"/>
		<polygon points="69.55,7.04 80.37,23.38 82.4,23.38 82.4,3.24 80.25,3.24 80.25,19.33 69.56,3.24 67.41,3.24 67.41,23.38 
			69.56,23.38 		"/>
		<polygon points="63.51,23.38 65.7,23.38 58.34,3.24 56.64,3.24 49.28,23.38 51.47,23.38 53.65,17.22 59.08,17.22 58.4,15.29 
			54.33,15.29 57.49,6.36 		"/>
		<path d="M41.74,12.54h0.54c2.35,0,4.02-1.22,4.02-3.68c0-2.46-1.67-3.71-4.02-3.71h-5.37v18.22h-2.15V3.24h7.72
			c3.51,0,5.97,2.12,5.97,5.6c0,2.94-1.78,4.87-4.39,5.4l4.78,9.14h-2.52l-4.58-8.94V12.54z"/>
		<polygon points="26.64,3.24 24.93,3.24 17.58,23.38 19.77,23.38 25.79,6.36 31.8,23.38 33.99,23.38 		"/>
	</g>
	<g id="Isotipo">
		<rect x="12.57" y="3.24" width="2.85" height="20.14"/>
		<rect x="7.9" y="3.24" width="2.85" height="20.14"/>
		<rect x="3.23" y="3.24" width="2.85" height="20.14"/>
	</g>
</g>
</svg>
