<?xml version="1.0" encoding="utf-8"?>
<!-- Generator: Adobe Illustrator 27.2.0, SVG Export Plug-In . SVG Version: 6.00 Build 0)  -->
<svg version="1.1" id="Layer_1" xmlns="http://www.w3.org/2000/svg" xmlns:xlink="http://www.w3.org/1999/xlink" x="0px" y="0px"
	 viewBox="0 0 155.8 22.3" style="enable-background:new 0 0 155.8 22.3;" xml:space="preserve">
<g id="lll_Jusnet_l_Karnov_Group">
	<g id="Karnov_Group">
		<polygon points="104.6,0 104.8,0 105,0 105,11.2 105,22.3 104.8,22.3 104.6,22.3 104.6,11.2 		"/>
		<polygon points="109.7,1.1 110.2,1.1 110.7,1.1 110.7,5.7 110.7,10.4 110.2,10.4 109.7,10.4 109.7,5.7 		"/>
		<polygon points="139.4,10.5 138.9,10.5 138.5,10.5 136,6.8 133.5,3 133.5,6.8 133.5,10.5 133,10.5 132.5,10.5 132.5,5.8 
			132.5,1.1 132.9,1.1 133.4,1.1 135.9,4.8 138.4,8.5 138.4,4.8 138.4,1.1 138.9,1.1 139.4,1.1 139.4,5.8 		"/>
		<polygon points="153.9,1.1 152.7,4.8 151.6,8.5 150.4,4.8 149.2,1.1 148.7,1.1 148.1,1.1 149.6,5.8 151.2,10.5 151.6,10.5 
			152,10.5 153.5,5.8 155.1,1.1 154.5,1.1 		"/>
		<polygon points="117.1,10.5 118.4,6.6 119.8,2.7 121.2,6.6 122.5,10.5 123.1,10.5 123.7,10.5 121.9,5.8 120.2,1.1 119.8,1.1 
			119.4,1.1 117.7,5.8 115.9,10.5 116.5,10.5 		"/>
		<polygon points="115.7,1.1 115.1,1.1 114.5,1.1 112.8,3.4 111,5.8 113,8.1 115,10.5 115.2,10.5 115.4,10.5 115.5,10.1 115.7,9.7 
			114,7.7 112.3,5.7 114,3.4 		"/>
		<path d="M112.8,21.3c-0.5,0-0.9-0.1-1.3-0.3s-0.8-0.4-1.1-0.7c-0.4-0.4-0.7-0.9-0.8-1.5c-0.1-0.6-0.1-1.3-0.1-2.3s0-1.7,0.1-2.3
			c0.1-0.6,0.3-1,0.8-1.5c0.3-0.3,0.7-0.6,1.1-0.7c0.4-0.2,0.8-0.3,1.3-0.3c0.6,0,1.1,0.1,1.6,0.4c0.5,0.2,0.8,0.6,1.2,1l0.1,0.1
			l0.1,0.1l-0.4,0.4l-0.4,0.4l-0.1-0.1l-0.1-0.1c-0.4-0.4-0.7-0.6-1-0.8c-0.3-0.2-0.7-0.2-1.1-0.2c-0.3,0-0.6,0.1-0.9,0.2
			c-0.3,0.1-0.5,0.3-0.7,0.5c-0.3,0.3-0.5,0.6-0.5,1.1c-0.1,0.5-0.1,1.1-0.1,2.1c0,0.9,0,1.6,0.1,2.1c0.1,0.5,0.2,0.8,0.5,1.1
			c0.2,0.2,0.4,0.4,0.7,0.5c0.3,0.1,0.6,0.2,0.9,0.2c0.3,0,0.7-0.1,1-0.2s0.6-0.3,0.8-0.6c0.2-0.2,0.3-0.4,0.4-0.7
			c0.1-0.3,0.1-0.6,0.1-0.9v-0.3v-0.3h-1.2h-1.2v-0.5v-0.5h1.8h1.8v0.8v0.8c0,0.5-0.1,0.9-0.2,1.3c-0.1,0.4-0.3,0.7-0.6,1
			c-0.3,0.3-0.7,0.6-1.1,0.8C113.7,21.2,113.2,21.3,112.8,21.3"/>
		<path d="M136.7,21.3c-1,0-1.8-0.3-2.4-0.9c-0.6-0.6-0.9-1.4-0.9-2.3V15v-3.1h0.5h0.5v3.1V18c0,0.7,0.2,1.3,0.6,1.7
			c0.4,0.4,0.9,0.6,1.6,0.6s1.2-0.2,1.6-0.6c0.4-0.4,0.6-1,0.6-1.7v-3.1v-3.1h0.5h0.5V15v3.1c0,0.9-0.4,1.7-0.9,2.3
			C138.5,21,137.7,21.3,136.7,21.3"/>
		<path d="M128.5,12.7c-0.3,0-0.6,0.1-0.9,0.2c-0.3,0.1-0.5,0.3-0.7,0.5c-0.3,0.3-0.5,0.6-0.5,1.1c-0.1,0.5-0.1,1.1-0.1,2.1
			c0,0.9,0,1.6,0.1,2c0.1,0.5,0.2,0.8,0.5,1.1c0.2,0.2,0.4,0.4,0.7,0.5c0.3,0.1,0.6,0.2,0.9,0.2s0.6-0.1,0.9-0.2
			c0.3-0.1,0.5-0.3,0.7-0.5c0.3-0.3,0.5-0.6,0.5-1.1c0.1-0.5,0.1-1.1,0.1-2.1c0-0.9,0-1.6-0.1-2c-0.1-0.5-0.2-0.8-0.5-1.1
			c-0.2-0.2-0.4-0.4-0.7-0.5C129.1,12.8,128.8,12.7,128.5,12.7 M128.5,21.3c-0.5,0-0.9-0.1-1.3-0.3s-0.8-0.4-1.1-0.7
			c-0.4-0.4-0.7-0.9-0.8-1.5c-0.1-0.6-0.1-1.3-0.1-2.3s0-1.7,0.1-2.3s0.3-1,0.8-1.5c0.3-0.3,0.7-0.6,1.1-0.7
			c0.4-0.2,0.8-0.3,1.3-0.3s0.9,0.1,1.3,0.3s0.8,0.4,1.1,0.7c0.4,0.4,0.7,0.9,0.8,1.5c0.1,0.6,0.1,1.3,0.1,2.3s0,1.7-0.1,2.3
			s-0.3,1-0.8,1.5c-0.3,0.3-0.7,0.6-1.1,0.7S129,21.3,128.5,21.3"/>
		<path d="M122,17c0.6-0.2,1.1-0.5,1.4-0.9c0.3-0.4,0.5-1,0.5-1.7c0-0.8-0.3-1.4-0.8-1.9c-0.5-0.5-1.2-0.7-2-0.7h-1.8h-1.8v4.7v4.7
			h0.5h0.5V17v-4.2h1.2h1.2c0.6,0,1,0.1,1.3,0.4s0.5,0.7,0.5,1.2c0,0.7-0.3,1.1-0.6,1.3c-0.4,0.2-0.8,0.3-1.1,0.3H121h-0.2v0.5v0.5
			h0h0l1.1,2.1l1.1,2.1h0.6h0.6l-1.1-2.1L122,17z"/>
		<path d="M129,6.3c0.6-0.2,1.1-0.5,1.4-0.9c0.3-0.4,0.5-1,0.5-1.7c0-0.8-0.3-1.4-0.8-1.9c-0.5-0.5-1.2-0.7-2-0.7h-1.8h-1.8v4.7v4.7
			h0.5h0.5V6.3V2.1h1.2h1.2c0.6,0,1,0.1,1.3,0.4s0.5,0.7,0.5,1.2c0,0.7-0.3,1.1-0.6,1.3c-0.4,0.2-0.8,0.3-1.1,0.3H128h-0.2v0.5v0.5
			h0h0l1.1,2.1l1.1,2.1h0.6h0.6l-1.1-2.1L129,6.3z"/>
		<path d="M145.2,11.8h-1.8h-1.8v4.7v4.7h0.5h0.5V17v-4.2h1.2h1.2c0.4,0,0.8,0.1,1.2,0.3c0.4,0.3,0.7,0.7,0.7,1.5
			c0,0.8-0.3,1.2-0.7,1.5c-0.4,0.3-0.9,0.3-1.2,0.3h-0.6H144v0.5v0.5h0.6h0.6c0.9,0,1.6-0.3,2.1-0.8c0.5-0.5,0.8-1.2,0.8-2
			c0-0.8-0.3-1.5-0.8-2C146.8,12.1,146.1,11.8,145.2,11.8"/>
		<path d="M144.4,2c-0.3,0-0.6,0.1-0.9,0.2c-0.3,0.1-0.5,0.3-0.7,0.5c-0.3,0.3-0.5,0.6-0.5,1.1c-0.1,0.5-0.1,1.1-0.1,2.1
			c0,0.9,0,1.6,0.1,2c0.1,0.5,0.2,0.8,0.5,1.1c0.2,0.2,0.4,0.4,0.7,0.5c0.3,0.1,0.6,0.2,0.9,0.2c0.3,0,0.6-0.1,0.9-0.2
			c0.3-0.1,0.5-0.3,0.7-0.5c0.3-0.3,0.5-0.6,0.5-1.1c0.1-0.5,0.1-1.1,0.1-2.1c0-0.9,0-1.6-0.1-2c-0.1-0.5-0.2-0.8-0.5-1.1
			c-0.2-0.2-0.4-0.4-0.7-0.5C145,2.1,144.7,2,144.4,2 M144.4,10.6c-0.5,0-0.9-0.1-1.3-0.3s-0.8-0.4-1.1-0.7
			c-0.4-0.4-0.7-0.9-0.8-1.5c-0.1-0.6-0.1-1.3-0.1-2.3s0-1.7,0.1-2.3s0.3-1,0.8-1.5c0.3-0.3,0.7-0.6,1.1-0.7S144,1,144.4,1
			s0.9,0.1,1.3,0.3s0.8,0.4,1.1,0.7c0.4,0.4,0.7,0.9,0.8,1.5s0.1,1.3,0.1,2.3s0,1.7-0.1,2.3s-0.3,1-0.8,1.5
			c-0.3,0.3-0.7,0.6-1.1,0.7S144.9,10.6,144.4,10.6"/>
	</g>
	<g id="Jusnet">
		<polygon points="94.8,3.1 94.8,12.2 94.8,21.3 93.7,21.3 92.7,21.3 92.7,12.2 92.7,3.1 90.4,3.1 88.2,3.1 87.7,2.1 87.2,1.2 
			93.7,1.2 100.3,1.2 100.3,2.1 100.3,3.1 97.5,3.1 		"/>
		<polygon points="73.5,21.3 73.5,11.2 73.5,1.2 79.7,1.2 86,1.2 86,2.1 86,3.1 80.8,3.1 75.6,3.1 75.6,6.6 75.6,10.2 78.7,10.2 
			81.8,10.2 81.8,11.2 81.8,12.1 78.7,12.1 75.6,12.1 75.6,15.8 75.6,19.4 80.8,19.4 86,19.4 86,20.4 86,21.3 79.7,21.3 		"/>
		<polygon points="68.8,1.3 68.8,9.2 68.8,17.2 63.6,9.2 58.5,1.3 57.5,1.3 56.5,1.3 56.5,11.3 56.5,21.3 57.5,21.3 58.5,21.3 
			58.5,13.1 58.5,4.9 63.7,13.1 68.8,21.3 69.9,21.3 70.9,21.3 70.9,11.3 70.9,1.3 69.8,1.3 		"/>
		<path d="M54.5,13.4c-0.2-0.4-0.5-0.8-0.9-1.1c-0.4-0.3-0.8-0.7-1.3-1c-0.3-0.2-0.7-0.4-1.3-0.6c-0.5-0.2-1.2-0.5-2-0.8
			c-0.8-0.3-1.5-0.7-2-1.1c-0.5-0.4-0.9-0.7-1.1-1c-0.2-0.3-0.4-0.6-0.5-0.9c-0.1-0.3-0.1-0.7,0-1.1C45.7,5.3,45.8,5,46,4.6
			c0.2-0.3,0.5-0.6,0.9-0.9c0.4-0.2,0.8-0.4,1.3-0.5c0.5-0.1,1.1-0.1,1.7,0c0.4,0,0.7,0.1,1,0.2s0.6,0.2,0.9,0.4L52.4,3l0.5-0.9
			c-0.4-0.2-0.8-0.4-1.2-0.5s-0.9-0.3-1.4-0.3c-0.9-0.1-1.7-0.1-2.4,0.1s-1.4,0.4-2,0.9s-1,0.9-1.4,1.5S43.8,5,43.7,5.8
			c-0.1,0.4-0.1,0.8,0,1.2s0.1,0.8,0.3,1.1c0.1,0.4,0.3,0.7,0.5,1c0.2,0.3,0.5,0.6,0.8,0.9c0.3,0.3,0.7,0.5,1.2,0.8
			c0.5,0.3,1.2,0.6,1.9,0.9c0.9,0.4,1.6,0.7,2.1,1c0.6,0.3,1,0.5,1.2,0.7c0.3,0.2,0.5,0.4,0.7,0.6c0.2,0.2,0.3,0.4,0.4,0.7
			c0.1,0.2,0.2,0.5,0.2,0.8c0,0.3,0,0.6,0,0.9c-0.1,0.5-0.2,1-0.5,1.3c-0.2,0.4-0.6,0.7-1,1c-0.2,0.1-0.4,0.2-0.6,0.3
			c-0.2,0.1-0.4,0.2-0.7,0.2c-0.3,0.1-0.6,0.2-0.9,0.2c-0.3,0-0.7,0-1.1,0c-0.7-0.1-1.4-0.3-2-0.7c-0.6-0.3-1.2-0.7-1.7-1.2
			c-0.1-0.1-0.3-0.3-0.4-0.4c-0.1-0.2-0.3-0.3-0.4-0.5l-0.5,0.9l-0.5,0.9c0.1,0.1,0.2,0.2,0.2,0.3s0.2,0.2,0.2,0.3
			c0.5,0.6,1.2,1.1,2,1.5c0.8,0.4,1.7,0.7,2.7,0.8c0.6,0.1,1.3,0.1,1.8,0.1s1.1-0.1,1.6-0.3c0.5-0.2,0.9-0.4,1.3-0.7
			c0.4-0.3,0.8-0.7,1.1-1.1s0.6-0.9,0.8-1.3c0.2-0.5,0.3-1,0.4-1.5c0.1-0.5,0.1-1.1,0-1.6S54.7,13.8,54.5,13.4"/>
		<path d="M34.7,21.3c-2,0-3.8-0.7-5-1.9c-1.2-1.2-2-2.9-2-4.9V7.9V1.2h1.1h1.1v6.6v6.6c0,1.5,0.5,2.8,1.3,3.6
			c0.8,0.9,2,1.4,3.5,1.4s2.7-0.5,3.5-1.4c0.8-0.9,1.3-2.1,1.3-3.6V7.8V1.2h1.1h1.1v6.7v6.7c0,2-0.7,3.7-2,4.9
			C38.5,20.6,36.7,21.3,34.7,21.3"/>
		<path d="M18.8,21.3c-1,0-1.8-0.1-2.5-0.4c-0.8-0.3-1.4-0.7-2-1.4l0.7-0.7l0.7-0.7c0.4,0.4,0.7,0.7,1.2,0.9
			c0.5,0.2,1.1,0.4,1.9,0.4c1.3,0,2.3-0.4,3-1.2c0.7-0.8,1.1-1.9,1.1-3.4V8V1.2H24H25v7v7c0,1.9-0.6,3.5-1.7,4.6
			C22.2,20.7,20.7,21.3,18.8,21.3"/>
	</g>
	<g id="Isotipo">
		<polygon points="9.3,1.1 10.8,1.1 12.2,1.1 12.2,11.2 12.2,21.2 10.8,21.2 9.3,21.2 9.3,11.2 		"/>
		<polygon points="4.7,1.1 6.1,1.1 7.5,1.1 7.5,11.2 7.5,21.2 6.1,21.2 4.7,21.2 4.7,11.2 		"/>
		<polygon points="0,1.1 1.4,1.1 2.8,1.1 2.8,11.2 2.8,21.2 1.4,21.2 0,21.2 0,11.2 		"/>
	</g>
</g>
</svg>
